# xmcd
# 
# Track frame offsets:
#     150
#     11860
#     23375
#     33322
#     45425
#     57312
#     71290
#     87617
#     98117
#     111372
#     124935
#     135567
#     149285
#     161792
#     177275
#     192460
#     204730
# 
# Disc length: 3743
# 
# Revision: 2
# Processed by: cddbd v1.5.2PL0 Copyright (c) Steve Scherf et al.
# Submitted via: fre:ac v1.0.31
# 
DISCID=f10e9d11
DTITLE=The Byrds - Fifth Dimension
DYEAR=1966
DGENRE=Rock
TTITLE0=5D (Fifth Dimension)
TTITLE1=Wild Mountain Thyme
TTITLE2=Mr. Spaceman
TTITLE3=I See You
TTITLE4=What's Happening?!?!
TTITLE5=I Come and Stand at Every Door
TTITLE6=Eight Miles High
TTITLE7=Hey Joe (Where You Gonna Go)
TTITLE8=Captain Soul
TTITLE9=John Riley
TTITLE10=2-4-2 Fox Trot (The Lear Jet Song)
TTITLE11=Why (single version)
TTITLE12=I Know My Rider (I Know You Rider)
TTITLE13=Psychodrama City
TTITLE14=Eight Miles High (alternate/RCA Studios version)
TTITLE15=Why (alternate/RCA Studios version)
TTITLE16=John Riley
EXTD=YEAR: 1966
EXTT0=
EXTT1=
EXTT2=
EXTT3=
EXTT4=
EXTT5=
EXTT6=
EXTT7=
EXTT8=
EXTT9=
EXTT10=
EXTT11=
EXTT12=
EXTT13=
EXTT14=
EXTT15=
EXTT16=
PLAYORDER=
